<svg width="377" height="84" viewBox="0 0 377 84" fill="none" xmlns="http://www.w3.org/2000/svg">
<g clip-path="url(#clip0)">
<path d="M54.88 17.24C55.5733 17.24 56.1333 17.4533 56.56 17.88C57.04 18.3067 57.28 18.8933 57.28 19.64C57.28 19.6933 57.2 20.04 57.04 20.68L44.72 57.48C44.4533 57.96 44.1067 58.36 43.68 58.68C43.2533 58.9467 42.8 59.0533 42.32 59C41.84 59 41.4133 58.8667 41.04 58.6C40.6667 58.3333 40.3733 57.96 40.16 57.48L29.68 32.84L20.32 57.48C20.1067 57.9067 19.7867 58.28 19.36 58.6C18.9867 58.8667 18.5867 59 18.16 59C17.6267 59.0533 17.12 58.9467 16.64 58.68C16.2133 58.36 15.92 57.96 15.76 57.48L3.12 20.68C2.96 20.36 2.88 20.0133 2.88 19.64C2.88 18.9467 3.12 18.3867 3.6 17.96C4.08 17.48 4.66667 17.24 5.36 17.24C5.84 17.24 6.26667 17.4 6.64 17.72C7.06667 17.9867 7.36 18.36 7.52 18.84L18.16 50.76L27.68 26.84C28.0533 25.8267 28.8 25.32 29.92 25.32C30.9867 25.32 31.7333 25.8267 32.16 26.84L42.16 50.6L52.64 18.84C52.96 17.7733 53.7067 17.24 54.88 17.24ZM101.036 36.2C101.036 36.84 100.796 37.4 100.316 37.88C99.8363 38.3067 99.2763 38.52 98.6363 38.52H68.3963C68.3963 41.72 69.0363 44.6 70.3163 47.16C71.6496 49.6667 73.5163 51.6667 75.9163 53.16C78.3696 54.6 81.2496 55.32 84.5563 55.32C87.1163 55.32 89.4096 54.7867 91.4363 53.72C93.4629 52.6533 95.0896 51.2933 96.3163 49.64C96.9029 49.16 97.4629 48.92 97.9963 48.92C98.5296 48.92 99.0096 49.1333 99.4363 49.56C99.8629 49.9867 100.076 50.4667 100.076 51C100.076 51.5867 99.8096 52.1467 99.2763 52.68C97.5696 54.76 95.4096 56.4667 92.7963 57.8C90.2363 59.1333 87.5163 59.8 84.6363 59.8C80.5296 59.8 76.9029 58.92 73.7563 57.16C70.6096 55.4 68.1563 52.9467 66.3963 49.8C64.6363 46.6 63.7563 42.92 63.7563 38.76C63.7563 34.3867 64.6096 30.5733 66.3163 27.32C68.0763 24.0133 70.3963 21.5067 73.2763 19.8C76.1563 18.04 79.2229 17.16 82.4763 17.16C85.6763 17.16 88.6629 17.9067 91.4363 19.4C94.2629 20.8933 96.5563 23.08 98.3163 25.96C100.076 28.84 100.983 32.2533 101.036 36.2ZM82.4763 21.8C79.3829 21.8 76.5029 22.8667 73.8363 25C71.2229 27.1333 69.5429 30.2 68.7963 34.2H96.0763V33.56C95.8096 31.16 95.0096 29.08 93.6763 27.32C92.3429 25.5067 90.6629 24.1467 88.6363 23.24C86.6629 22.28 84.6096 21.8 82.4763 21.8ZM144.129 -0.200001C144.823 -0.200001 145.383 0.0399993 145.809 0.52C146.289 0.946664 146.529 1.50666 146.529 2.2V56.6C146.529 57.2933 146.289 57.88 145.809 58.36C145.383 58.7867 144.823 59 144.129 59C143.436 59 142.849 58.7867 142.369 58.36C141.943 57.88 141.729 57.2933 141.729 56.6V51C140.396 53.4533 138.396 55.5333 135.729 57.24C133.116 58.9467 130.209 59.8 127.009 59.8C123.489 59.8 120.289 58.8933 117.409 57.08C114.583 55.2133 112.343 52.6533 110.689 49.4C109.036 46.1467 108.209 42.4933 108.209 38.44C108.209 34.44 109.036 30.8133 110.689 27.56C112.343 24.3067 114.583 21.7733 117.409 19.96C120.289 18.0933 123.463 17.16 126.929 17.16C130.076 17.16 132.983 17.96 135.649 19.56C138.316 21.1067 140.343 23.1333 141.729 25.64V2.2C141.729 1.50666 141.943 0.946664 142.369 0.52C142.849 0.0399993 143.436 -0.200001 144.129 -0.200001ZM127.489 55.32C130.263 55.32 132.743 54.6 134.929 53.16C137.169 51.72 138.903 49.72 140.129 47.16C141.409 44.5467 142.049 41.64 142.049 38.44C142.049 35.2933 141.409 32.44 140.129 29.88C138.903 27.32 137.169 25.32 134.929 23.88C132.743 22.3867 130.263 21.64 127.489 21.64C124.716 21.64 122.209 22.3867 119.969 23.88C117.783 25.32 116.049 27.32 114.769 29.88C113.543 32.44 112.929 35.2933 112.929 38.44C112.929 41.64 113.543 44.52 114.769 47.08C116.049 49.64 117.783 51.6667 119.969 53.16C122.209 54.6 124.716 55.32 127.489 55.32ZM193.614 36.2C193.614 36.84 193.374 37.4 192.894 37.88C192.414 38.3067 191.854 38.52 191.214 38.52H160.974C160.974 41.72 161.614 44.6 162.894 47.16C164.228 49.6667 166.094 51.6667 168.494 53.16C170.948 54.6 173.828 55.32 177.134 55.32C179.694 55.32 181.988 54.7867 184.014 53.72C186.041 52.6533 187.668 51.2933 188.894 49.64C189.481 49.16 190.041 48.92 190.574 48.92C191.108 48.92 191.588 49.1333 192.014 49.56C192.441 49.9867 192.654 50.4667 192.654 51C192.654 51.5867 192.388 52.1467 191.854 52.68C190.148 54.76 187.988 56.4667 185.374 57.8C182.814 59.1333 180.094 59.8 177.214 59.8C173.108 59.8 169.481 58.92 166.334 57.16C163.188 55.4 160.734 52.9467 158.974 49.8C157.214 46.6 156.334 42.92 156.334 38.76C156.334 34.3867 157.188 30.5733 158.894 27.32C160.654 24.0133 162.974 21.5067 165.854 19.8C168.734 18.04 171.801 17.16 175.054 17.16C178.254 17.16 181.241 17.9067 184.014 19.4C186.841 20.8933 189.134 23.08 190.894 25.96C192.654 28.84 193.561 32.2533 193.614 36.2ZM175.054 21.8C171.961 21.8 169.081 22.8667 166.414 25C163.801 27.1333 162.121 30.2 161.374 34.2H188.654V33.56C188.388 31.16 187.588 29.08 186.254 27.32C184.921 25.5067 183.241 24.1467 181.214 23.24C179.241 22.28 177.188 21.8 175.054 21.8ZM241.267 38.52C241.267 42.52 240.388 46.1467 238.628 49.4C236.868 52.6533 234.441 55.2133 231.348 57.08C228.254 58.8933 224.814 59.8 221.028 59.8C217.241 59.8 213.801 58.8933 210.708 57.08C207.614 55.2133 205.188 52.6533 203.428 49.4C201.668 46.1467 200.788 42.52 200.788 38.52C200.788 34.52 201.668 30.8933 203.428 27.64C205.188 24.3867 207.614 21.8267 210.708 19.96C213.801 18.0933 217.241 17.16 221.028 17.16C224.814 17.16 228.254 18.0933 231.348 19.96C234.441 21.8267 236.868 24.3867 238.628 27.64C240.388 30.8933 241.267 34.52 241.267 38.52ZM236.468 38.52C236.468 35.32 235.801 32.44 234.468 29.88C233.134 27.32 231.268 25.32 228.868 23.88C226.521 22.3867 223.908 21.64 221.028 21.64C218.148 21.64 215.534 22.3867 213.188 23.88C210.841 25.32 208.974 27.32 207.588 29.88C206.254 32.44 205.588 35.32 205.588 38.52C205.588 41.6667 206.254 44.52 207.588 47.08C208.974 49.64 210.841 51.6667 213.188 53.16C215.534 54.6 218.148 55.32 221.028 55.32C223.908 55.32 226.521 54.6 228.868 53.16C231.268 51.72 233.134 49.72 234.468 47.16C235.801 44.6 236.468 41.72 236.468 38.52Z" fill="url(#paint0_linear)"/>
<path d="M311.72 17.8C316.52 17.8 320.04 19.2933 322.28 22.28C324.573 25.2133 325.72 29.1067 325.72 33.96V56.6C325.72 57.2933 325.48 57.88 325 58.36C324.573 58.7867 324.013 59 323.32 59C322.627 59 322.04 58.7867 321.56 58.36C321.133 57.88 320.92 57.2933 320.92 56.6V34.2C320.92 30.68 320.067 27.8267 318.36 25.64C316.707 23.4 314.12 22.28 310.6 22.28C308.36 22.28 306.227 22.8133 304.2 23.88C302.227 24.9467 300.627 26.4133 299.4 28.28C298.173 30.0933 297.56 32.0667 297.56 34.2V56.6C297.56 57.2933 297.32 57.88 296.84 58.36C296.413 58.7867 295.853 59 295.16 59C294.467 59 293.88 58.7867 293.4 58.36C292.973 57.88 292.76 57.2933 292.76 56.6V33.96C292.76 30.4933 291.96 27.6933 290.36 25.56C288.76 23.3733 286.253 22.28 282.84 22.28C280.653 22.28 278.573 22.8133 276.6 23.88C274.68 24.9467 273.107 26.3867 271.88 28.2C270.707 29.96 270.12 31.88 270.12 33.96V56.6C270.12 57.2933 269.88 57.88 269.4 58.36C268.973 58.7867 268.413 59 267.72 59C267.027 59 266.44 58.7867 265.96 58.36C265.533 57.88 265.32 57.2933 265.32 56.6V20.76C265.32 20.0667 265.533 19.5067 265.96 19.08C266.44 18.6 267.027 18.36 267.72 18.36C268.413 18.36 268.973 18.6 269.4 19.08C269.88 19.5067 270.12 20.0667 270.12 20.76V25.4C271.56 23.2133 273.507 21.4 275.96 19.96C278.413 18.52 281 17.8 283.72 17.8C286.813 17.8 289.48 18.5467 291.72 20.04C293.96 21.5333 295.56 23.72 296.52 26.6C297.64 24.2533 299.693 22.2 302.68 20.44C305.667 18.68 308.68 17.8 311.72 17.8ZM372.849 36.2C372.849 36.84 372.609 37.4 372.129 37.88C371.649 38.3067 371.089 38.52 370.449 38.52H340.209C340.209 41.72 340.849 44.6 342.129 47.16C343.462 49.6667 345.329 51.6667 347.729 53.16C350.182 54.6 353.062 55.32 356.369 55.32C358.929 55.32 361.222 54.7867 363.249 53.72C365.275 52.6533 366.902 51.2933 368.129 49.64C368.715 49.16 369.275 48.92 369.809 48.92C370.342 48.92 370.822 49.1333 371.249 49.56C371.675 49.9867 371.889 50.4667 371.889 51C371.889 51.5867 371.622 52.1467 371.089 52.68C369.382 54.76 367.222 56.4667 364.609 57.8C362.049 59.1333 359.329 59.8 356.449 59.8C352.342 59.8 348.715 58.92 345.569 57.16C342.422 55.4 339.969 52.9467 338.209 49.8C336.449 46.6 335.569 42.92 335.569 38.76C335.569 34.3867 336.422 30.5733 338.129 27.32C339.889 24.0133 342.209 21.5067 345.089 19.8C347.969 18.04 351.035 17.16 354.289 17.16C357.489 17.16 360.475 17.9067 363.249 19.4C366.075 20.8933 368.369 23.08 370.129 25.96C371.889 28.84 372.795 32.2533 372.849 36.2ZM354.289 21.8C351.195 21.8 348.315 22.8667 345.649 25C343.035 27.1333 341.355 30.2 340.609 34.2H367.889V33.56C367.622 31.16 366.822 29.08 365.489 27.32C364.155 25.5067 362.475 24.1467 360.449 23.24C358.475 22.28 356.422 21.8 354.289 21.8Z" fill="#AAAAAA"/>
<line x1="2.5" y1="77.5" x2="249.5" y2="77.5" stroke="url(#paint1_linear)" stroke-width="5" stroke-linecap="round" stroke-linejoin="round"/>
<line x1="254.5" y1="77.5" x2="374.5" y2="77.5" stroke="#AAAAAA" stroke-width="5" stroke-linecap="round" stroke-linejoin="round"/>
<circle cx="251.5" cy="77.5" r="6.5" fill="#007ABF"/>
</g>
<defs>
<linearGradient id="paint0_linear" x1="0" y1="-21" x2="254.67" y2="22.8997" gradientUnits="userSpaceOnUse">
<stop stop-color="#00BCD4"/>
<stop offset="1" stop-color="#007ABF"/>
</linearGradient>
<linearGradient id="paint1_linear" x1="0" y1="80" x2="252" y2="80" gradientUnits="userSpaceOnUse">
<stop stop-color="#00BCD4"/>
<stop offset="1" stop-color="#007ABF"/>
</linearGradient>
<clipPath id="clip0">
<rect width="377" height="84" fill="white"/>
</clipPath>
</defs>
</svg>
